<svg xmlns="http://www.w3.org/2000/svg" viewBox="0 0 183.88 293.05"><defs><style>.cls-1{fill:#c69c31;}.cls-2{fill:#e4e1d1;}</style></defs><g id="Layer_2" data-name="Layer 2"><g id="Layer_1-2" data-name="Layer 1"><path class="cls-1" d="M73.87,201.47H92.18a157.74,157.74,0,0,1-.54-18.31H73.33a153.42,153.42,0,0,0,.54,18.31"/><path class="cls-1" d="M82.78,233.88H101.1a78.22,78.22,0,0,1-5.95-14.09H76.84a77.45,77.45,0,0,0,5.94,14.09"/><path class="cls-2" d="M156,0a123.18,123.18,0,0,1,8.83,35.7H146.55A123.48,123.48,0,0,0,137.73,0H119.41a123.83,123.83,0,0,1,8.83,35.7H109.92A123.48,123.48,0,0,0,101.1,0H82.78c10.14,24.42,10.92,48.84,8.1,73.26H73C75.64,48.84,74.73,24.42,64.46,0H46.15c10,23.74,11.12,47.47,8.71,71.21-.77,7.2-1.87,14.4-3.15,21.6h54.57c1.28-7.2,2.38-14.4,3.15-21.6.58-5.42,1-10.84,1.12-16.26h73.26l0-1.26a153.48,153.48,0,0,0-.66-18A123.75,123.75,0,0,0,174.36,0Z"/><path class="cls-2" d="M9.52,238.1H27.83c-33-79.36,33-158.73,0-238.1H9.52c33,79.37-33,158.74,0,238.1"/><path class="cls-2" d="M144.16,73.26H127.43c-2.79,24.42-9.19,48.85-13.42,73.27H95.69c2.13-12.21,4.81-24.42,7.3-36.64H84.58c-2.46,12.22-5.1,24.43-7.2,36.64H58.68c2.23-12.21,5-24.42,7.59-36.64H48c-8.72,42.74-19.64,85.48-1.89,128.21h18.4c-10.14-24.42-10.92-48.84-8.1-73.26H111c-2.78,24.42-1.95,48.84,8.25,73.26h55a121.74,121.74,0,0,1-5.47-15.83c-11.25-43.18,2.87-86.36,10.53-129.54,1.22-6.49,2.3-13,3.13-19.47h-38.3Zm5.94,146.53H131.79c-3.81-15.95-4.23-31.89-2.88-47.84.66-7.8,1.74-15.6,3.07-23.39,3.14-18.59,7.64-37.17,10.93-55.75h18.32c-7.51,42.33-21.22,84.65-11.13,127"/><polygon class="cls-2" points="29.22 280.92 29.1 280.92 20.67 256.13 9.52 256.13 9.52 292.19 16.94 292.19 16.94 266.9 17.03 266.9 25.88 292.19 31.97 292.19 40.82 266.63 40.94 266.63 40.94 292.19 48.33 292.19 48.33 256.13 37.18 256.13 29.22 280.92"/><rect class="cls-2" x="55.28" y="256.13" width="7.93" height="36.06"/><path class="cls-2" d="M94.45,275.24v-.12q5.72-2.26,5.71-9a9.48,9.48,0,0,0-2.87-7,10.46,10.46,0,0,0-7.69-2.93H70.16v36.06h7.93V278.11H86a6.08,6.08,0,0,1,4.29,1.3A6.89,6.89,0,0,1,92,283.56q1.18,8.43,1.27,8.63h7.93q-1.07-1.38-1.54-8.52t-5.24-8.43m-7.69-2.78H78.09V262.31h8.67q5.47,0,5.47,5c0,3.44-1.82,5.15-5.47,5.15"/><path class="cls-2" d="M119.79,256.13l-13.7,36.06h8l2.84-8h13.49l2.72,8h8.22l-13.49-36.06ZM119,278.26l4.7-13.22h.09l4.56,13.22Z"/><path class="cls-2" d="M163.29,271a66.59,66.59,0,0,1-8.78-2.54,3,3,0,0,1-2-2.9,3.55,3.55,0,0,1,1.78-3.2,7,7,0,0,1,3.67-.88q6.79,0,7.13,5.44h7.66a10.22,10.22,0,0,0-4.38-8.93q-3.84-2.7-10.06-2.7a15.39,15.39,0,0,0-9.17,2.7,9.53,9.53,0,0,0-4.29,8.22,8.57,8.57,0,0,0,3.34,7.13,20.2,20.2,0,0,0,7.4,3.14l7.34,2c2.25.9,3.37,2.21,3.37,3.9q0,4.5-7,4.5a9.21,9.21,0,0,1-5.59-1.54,5.93,5.93,0,0,1-2.4-5.12h-7.66a11.1,11.1,0,0,0,4.61,9.74A17.68,17.68,0,0,0,159,293.05c4.8,0,8.53-1.1,11.22-3.31a10.15,10.15,0,0,0,3.78-8.26q0-8.07-10.68-10.5"/></g></g></svg>