<svg xmlns="http://www.w3.org/2000/svg" width="36.738" height="58.561" viewBox="0 0 36.738 58.561"><g transform="translate(0 0)"><path d="M73.382,186.819h3.659a31.519,31.519,0,0,1-.108-3.659H73.274a30.656,30.656,0,0,0,.108,3.659" transform="translate(-58.62 -146.56)" fill="#c79e32"/><path d="M78.027,222.606h3.661A15.63,15.63,0,0,1,80.5,219.79H76.84a15.477,15.477,0,0,0,1.187,2.815" transform="translate(-61.484 -175.871)" fill="#c79e32"/><path d="M68.1,0a24.614,24.614,0,0,1,1.764,7.134H66.212A24.674,24.674,0,0,0,64.45,0H60.789a24.744,24.744,0,0,1,1.764,7.134H58.893A24.674,24.674,0,0,0,57.13,0H53.47a28.568,28.568,0,0,1,1.619,14.639H51.515A28.731,28.731,0,0,0,49.809,0H46.15a28.285,28.285,0,0,1,1.74,14.229c-.154,1.439-.374,2.877-.629,4.316h10.9c.256-1.439.476-2.877.629-4.316.116-1.083.2-2.166.224-3.249H73.658v-.252a30.666,30.666,0,0,0-.132-3.6A24.728,24.728,0,0,0,71.769,0Z" transform="translate(-36.927 0)" fill="#042f28"/><path d="M1.9,47.578H5.556C-1.038,31.72,12.15,15.86,5.556,0H1.9C8.491,15.86-4.7,31.72,1.9,47.578" transform="translate(0.006 0)" fill="#042f28"/><path d="M58.087,73.26H54.744c-.558,4.88-1.836,9.761-2.682,14.641H48.4c.426-2.44.961-4.88,1.459-7.322H46.182c-.492,2.442-1.019,4.882-1.439,7.322H41.007c.446-2.44,1-4.88,1.517-7.322H38.872c-1.742,8.54-3.925,17.081-.378,25.619h3.677A28.568,28.568,0,0,1,40.553,91.56H51.461A28.544,28.544,0,0,0,53.11,106.2H64.1a24.325,24.325,0,0,1-1.093-3.163c-2.248-8.628.573-17.257,2.1-25.885.244-1.3.46-2.6.625-3.891H58.083Zm1.187,29.28H55.616a29.9,29.9,0,0,1-.575-9.56c.132-1.559.348-3.117.613-4.674.627-3.715,1.527-7.427,2.184-11.14H61.5c-1.5,8.459-4.24,16.915-2.224,25.378" transform="translate(-29.28 -58.621)" fill="#042f28"/><path d="M13.457,261.084h-.024l-1.685-4.954H9.52v7.206H11v-5.054h.018l1.768,5.054h1.217l1.768-5.108H15.8v5.108h1.477V256.13H15.047Z" transform="translate(-7.616 -204.949)" fill="#042f28"/><rect width="1.585" height="7.206" transform="translate(11.047 51.181)" fill="#042f28"/><path d="M75.014,259.99v-.024a1.747,1.747,0,0,0,1.141-1.8,1.894,1.894,0,0,0-.573-1.4,2.09,2.09,0,0,0-1.537-.586H70.16v7.206h1.585v-2.826h1.581a1.215,1.215,0,0,1,.857.26,1.377,1.377,0,0,1,.342.829q.236,1.684.254,1.724h1.585a4.209,4.209,0,0,1-.308-1.7q-.094-1.427-1.047-1.684m-1.537-.556H71.745v-2.028h1.732q1.093,0,1.093,1c0,.687-.364,1.029-1.093,1.029" transform="translate(-56.139 -204.991)" fill="#042f28"/><path d="M108.828,256.13l-2.738,7.206h1.6l.568-1.6h2.7l.544,1.6h1.643l-2.7-7.206Zm-.158,4.422.939-2.642h.018l.911,2.642Z" transform="translate(-84.889 -204.949)" fill="#042f28"/><path d="M147.556,258.424a13.311,13.311,0,0,1-1.754-.508.6.6,0,0,1-.4-.579.709.709,0,0,1,.356-.639,1.4,1.4,0,0,1,.733-.176q1.357,0,1.425,1.087h1.531a2.042,2.042,0,0,0-.875-1.784,3.423,3.423,0,0,0-2.01-.54,3.075,3.075,0,0,0-1.832.54,1.9,1.9,0,0,0-.857,1.643,1.712,1.712,0,0,0,.667,1.425,4.036,4.036,0,0,0,1.479.627l1.467.4c.45.18.673.442.673.779q0,.9-1.4.9a1.84,1.84,0,0,1-1.117-.308,1.185,1.185,0,0,1-.48-1.023h-1.531a2.218,2.218,0,0,0,.921,1.946,3.533,3.533,0,0,0,2.146.617,3.431,3.431,0,0,0,2.242-.661,2.028,2.028,0,0,0,.755-1.651q0-1.613-2.134-2.1" transform="translate(-114.925 -204.272)" fill="#042f28"/></g></svg>