<svg xmlns="http://www.w3.org/2000/svg" width="343.543" height="30.694" viewBox="0 0 343.543 30.694"><path d="M-4222.9-3690.5l-10-13.182h-6.192a13.08,13.08,0,0,1-12.879,10.9,13.077,13.077,0,0,1-13.063-13.063,13.079,13.079,0,0,1,13.063-13.064,13.083,13.083,0,0,1,12.879,10.9h6.192l10-13.182h41.028l10.007,13.182h5.355a13.081,13.081,0,0,1,12.879-10.9,13.077,13.077,0,0,1,13.062,13.064,13.078,13.078,0,0,1-13.063,13.063,13.084,13.084,0,0,1-12.879-10.9h-5.355l-10,13.182Zm2.149-4.333h36.729l6.717-8.849h-14.168v-4.33h14.168l-6.715-8.849h-36.731l-6.716,8.849h13.335v4.33h-13.335Zm67.121-2.284a8.741,8.741,0,0,0,8.733-8.73,8.742,8.742,0,0,0-8.733-8.732,8.741,8.741,0,0,0-8.449,6.567h8.449v4.328h-8.449A8.741,8.741,0,0,0-4153.632-3697.116Zm-107.079-8.732a8.742,8.742,0,0,0,8.732,8.732,8.738,8.738,0,0,0,8.449-6.567h-8.449v-4.33h8.449a8.74,8.74,0,0,0-8.449-6.567A8.742,8.742,0,0,0-4260.711-3705.849Zm-93.99,2.4h-19.877v-4.331h19.691l10.416-10.419,18.949,18.949,5.991-5.991-7.71-7.709,3.062-3.061,10.772,10.77-12.117,12.116-18.947-18.947-4.292,4.292h6.646v16.915Zm8.25,2.125v-2.125h-2.125Zm282.955-6.461h6.646l-4.292-4.292-18.947,18.947-12.117-12.116,10.77-10.77,3.064,3.063-7.708,7.709,5.991,5.991,18.947-18.947,10.418,10.419h19.689v4.327h-19.877l-12.584,12.584Zm4.333,6.461,2.125-2.125h-2.125Zm-78.459-3.917,10.771-10.772,3.063,3.063-7.709,7.709,5.992,5.991,18.947-18.949,12.49,12.491-11.144,11.144-3.064-3.061,8.083-8.083-6.363-6.363-18.947,18.947Zm-161.432-6.831-6.366,6.363,8.082,8.083-3.061,3.061-11.146-11.144,12.491-12.491,18.946,18.949,5.991-5.991-7.707-7.709,3.061-3.063,10.772,10.772-12.118,12.116Z" transform="translate(4374.578 3721.194)" fill="#fef3c7"/></svg>