<svg xmlns="http://www.w3.org/2000/svg" width="343.543" height="36.95" viewBox="0 0 343.543 36.95"><path d="M196.887,29.443a7.507,7.507,0,1,1,7.507,7.508A7.517,7.517,0,0,1,196.887,29.443Zm4.279,0a3.228,3.228,0,1,0,3.228-3.228A3.232,3.232,0,0,0,201.165,29.443Zm-69.52,0a7.507,7.507,0,1,1,7.507,7.508A7.516,7.516,0,0,1,131.646,29.443Zm4.279,0a3.228,3.228,0,1,0,3.228-3.228A3.232,3.232,0,0,0,135.924,29.443Zm36.88-6.876c-6.195,7.434-17.3,11.9-17.824,12.11L153.4,30.7c.122-.048,11.675-4.7,16.855-11.811C165.343,11.564,153.6,7.356,153.482,7.313L154.9,3.276c.525.183,11.827,4.222,17.9,11.858,6.077-7.636,17.38-11.673,17.9-11.858l1.418,4.036c-.121.043-11.86,4.25-16.776,11.579,5.18,7.106,16.731,11.76,16.855,11.811l-1.577,3.975C190.1,34.469,179,30,172.8,22.567Zm67.374,6.152a5.953,5.953,0,1,1,5.953,5.953A5.959,5.959,0,0,1,240.179,28.718Zm4.279,0a1.674,1.674,0,1,0,1.674-1.674A1.675,1.675,0,0,0,244.457,28.718Zm-152.995,0a5.953,5.953,0,1,1,5.953,5.953A5.959,5.959,0,0,1,91.463,28.718Zm4.279,0a1.674,1.674,0,1,0,1.674-1.674A1.675,1.675,0,0,0,95.741,28.718Zm185.8-.465a5.153,5.153,0,1,1,5.153,5.153A5.16,5.16,0,0,1,281.538,28.253Zm4.279,0a.874.874,0,1,0,.875-.874A.876.876,0,0,0,285.817,28.25Zm-234.114,0a5.153,5.153,0,1,1,5.153,5.153A5.16,5.16,0,0,1,51.7,28.253Zm4.279,0a.874.874,0,1,0,.875-.874A.876.876,0,0,0,55.981,28.25Zm268.239,0a3.014,3.014,0,1,1,3.014,3.013A3.014,3.014,0,0,1,324.22,28.253Zm-310.92,0a3.014,3.014,0,1,1,3.013,3.013A3.013,3.013,0,0,1,13.3,28.253Zm297.618-7.638V16.336h32.626v4.279Zm-40.542,0V16.336H303v4.279Zm-40.912,0V16.336h32.626v4.279Zm-41.735,0V16.336h32.626v4.279Zm-64.536,0V16.336h32.626v4.279Zm-41.738,0V16.336h32.627v4.279Zm-40.912,0V16.336H73.168v4.279ZM0,20.615V16.336H32.626v4.279ZM196.887,7.507a7.507,7.507,0,1,1,7.507,7.505A7.517,7.517,0,0,1,196.887,7.507Zm4.279,0a3.228,3.228,0,1,0,3.228-3.228A3.232,3.232,0,0,0,201.165,7.507Zm-69.52,0a7.507,7.507,0,1,1,7.507,7.505A7.516,7.516,0,0,1,131.646,7.507Zm4.279,0a3.228,3.228,0,1,0,3.228-3.228A3.232,3.232,0,0,0,135.924,7.507Zm145.614.8a5.153,5.153,0,1,1,5.153,5.153A5.158,5.158,0,0,1,281.538,8.307Zm4.279,0a.874.874,0,1,0,.875-.875A.875.875,0,0,0,285.817,8.307Zm-45.638-.8a5.953,5.953,0,1,1,5.953,5.953A5.959,5.959,0,0,1,240.179,7.507Zm4.279,0a1.674,1.674,0,1,0,1.674-1.674A1.675,1.675,0,0,0,244.457,7.505Zm-152.995,0a5.953,5.953,0,1,1,5.953,5.953A5.959,5.959,0,0,1,91.463,7.507Zm4.279,0a1.674,1.674,0,1,0,1.674-1.674A1.675,1.675,0,0,0,95.741,7.505Zm-44.039.8a5.153,5.153,0,1,1,5.153,5.153A5.16,5.16,0,0,1,51.7,8.307Zm4.279,0a.874.874,0,1,0,.875-.875A.875.875,0,0,0,55.981,8.307Zm268.239,0a3.014,3.014,0,1,1,3.014,3.013A3.014,3.014,0,0,1,324.22,8.307Zm-310.92,0a3.014,3.014,0,1,1,3.013,3.013A3.013,3.013,0,0,1,13.3,8.307Z" fill="#fef3c7"/></svg>