<svg xmlns="http://www.w3.org/2000/svg" width="78" height="86" viewBox="0 0 78 86"><g transform="translate(-724.1 -316.383)"><rect width="78" height="86" transform="translate(724.1 316.383)" fill="#fef0dc"/><g transform="translate(743.406 328.13)"><g transform="translate(0 0)"><path d="M73.391,187.092h3.932a33.87,33.87,0,0,1-.116-3.932H73.275a32.943,32.943,0,0,0,.116,3.932" transform="translate(-57.527 -143.829)" fill="#c79e32"/><path d="M78.116,222.816H82.05a16.8,16.8,0,0,1-1.278-3.026H76.84a16.632,16.632,0,0,0,1.276,3.026" transform="translate(-60.338 -172.593)" fill="#c79e32"/><path d="M69.739,0a26.452,26.452,0,0,1,1.9,7.666H67.71A26.516,26.516,0,0,0,65.816,0H61.882a26.591,26.591,0,0,1,1.9,7.666H59.844A26.515,26.515,0,0,0,57.95,0H54.016c2.177,5.244,2.345,10.488,1.739,15.732h-3.84c.567-5.244.371-10.488-1.834-15.732H46.15a30.4,30.4,0,0,1,1.87,15.291c-.165,1.546-.4,3.092-.676,4.638H59.062c.275-1.546.511-3.092.676-4.638.125-1.164.215-2.328.24-3.492H75.711v-.271a32.955,32.955,0,0,0-.142-3.865A26.573,26.573,0,0,0,73.681,0Z" transform="translate(-36.239 0)" fill="#042f28"/><path d="M2.039,51.129H5.971C-1.115,34.087,13.058,17.044,5.971,0H2.039c7.086,17.044-7.086,34.087,0,51.129" transform="translate(0.006 0)" fill="#042f28"/><path d="M59.692,73.26H56.1c-.6,5.244-1.973,10.49-2.882,15.734H49.283c.457-2.622,1.033-5.244,1.568-7.868H46.9c-.528,2.624-1.1,5.246-1.546,7.868H41.336c.479-2.622,1.074-5.244,1.63-7.868H39.043c-1.873,9.178-4.217,18.356-.406,27.531h3.951c-2.177-5.244-2.345-10.488-1.739-15.732H52.571c-.6,5.244-.419,10.488,1.772,15.732H66.153a26.141,26.141,0,0,1-1.175-3.4c-2.416-9.272.616-18.545,2.261-27.817.262-1.394.494-2.792.672-4.181H59.687Zm1.276,31.465H57.035a32.128,32.128,0,0,1-.618-10.273c.142-1.675.374-3.35.659-5.023.674-3.992,1.641-7.982,2.347-11.972h3.934c-1.613,9.09-4.557,18.178-2.39,27.272" transform="translate(-28.734 -57.528)" fill="#042f28"/><path d="M13.75,261.453h-.026l-1.81-5.323H9.52v7.743h1.593v-5.431h.019l1.9,5.431h1.308l1.9-5.489h.026v5.489h1.587V256.13H15.46Z" transform="translate(-7.474 -201.129)" fill="#042f28"/><rect width="1.703" height="7.743" transform="translate(11.872 55.001)" fill="#042f28"/><path d="M75.376,260.274v-.026a1.878,1.878,0,0,0,1.226-1.933,2.036,2.036,0,0,0-.616-1.5,2.246,2.246,0,0,0-1.651-.629H70.16v7.743h1.7V260.89h1.7a1.306,1.306,0,0,1,.921.279,1.48,1.48,0,0,1,.367.891q.253,1.81.273,1.853h1.7a4.523,4.523,0,0,1-.331-1.83q-.1-1.533-1.125-1.81m-1.651-.6H71.863V257.5h1.862q1.175,0,1.175,1.074c0,.739-.391,1.106-1.175,1.106" transform="translate(-55.093 -201.17)" fill="#042f28"/><path d="M109.032,256.13l-2.942,7.743h1.718l.61-1.718h2.9l.584,1.718h1.765l-2.9-7.743Zm-.17,4.752,1.009-2.839h.019l.979,2.839Z" transform="translate(-83.307 -201.129)" fill="#042f28"/><path d="M147.849,258.658a14.3,14.3,0,0,1-1.885-.545.644.644,0,0,1-.429-.623.762.762,0,0,1,.382-.687,1.5,1.5,0,0,1,.788-.189q1.458,0,1.531,1.168h1.645a2.195,2.195,0,0,0-.941-1.918,3.679,3.679,0,0,0-2.16-.58,3.3,3.3,0,0,0-1.969.58,2.046,2.046,0,0,0-.921,1.765,1.84,1.84,0,0,0,.717,1.531,4.337,4.337,0,0,0,1.589.674l1.576.43c.483.193.724.475.724.837q0,.966-1.5.966a1.977,1.977,0,0,1-1.2-.331,1.273,1.273,0,0,1-.515-1.1h-1.645a2.384,2.384,0,0,0,.99,2.092,3.8,3.8,0,0,0,2.306.664,3.687,3.687,0,0,0,2.409-.711,2.18,2.18,0,0,0,.812-1.774q0-1.733-2.293-2.255" transform="translate(-112.783 -200.465)" fill="#042f28"/></g></g></g></svg>