<svg xmlns="http://www.w3.org/2000/svg" width="591.012" height="158.329" viewBox="0 0 591.012 158.329"><g transform="translate(-1025.6 -591.311)"><path d="M59.18,330.58c-2.5,1.5-4.6,6.7-4.3,10.7.1,1.7.1,3.2-.1,3.2a18.159,18.159,0,0,1-3.2-2.1,17.88,17.88,0,0,0-6.8-2.6c-3.5-.5-4.3-.2-5.3,1.6-1.5,2.9-.5,5.5,3.9,10.4,3.5,3.9,3.5,4,1,3.4-3.6-.9-7.1,1.7-6.7,5.1.3,2.6,2.2,4.2,10.4,8.9l3.9,2.1-4.2-.5c-3.3-.4-4.4-.2-4.9,1-.9,2.4,1.2,5.3,5.8,7.9,2.3,1.3,4.1,2.7,3.9,3.3-.3,1.2-43.9,61.4-45.8,63.3-1.7,1.7-1.6,2.2.3,4.3,1.4,1.6,1.4,1.8-.5,2.4-1.1.3-3.4,2.2-5,4.1-4.9,5.5-3.9,14.3,2.2,19.1,1.3,1,2.2,2.3,2,2.9s.7,1.4,1.9,1.7,25.5.9,53.8,1.2c99.5,1,220.9,2.4,261,3,99.1,1.5,260.6,3.3,261.3,2.8,1.9-1.2.3-2.3-3.5-2.3h-4.2l4.4-2.3c5.2-2.6,9-7.7,9-12.1,0-4-3.1-9.1-7-11.5l-3.1-1.8,4.1-.7c2.2-.3,4-1,4-1.4s-11.3-16.1-25-35-25-34.7-25-35.2c0-2.2,3.4-4,7.4-4,7.9,0,14.8-4.5,13.2-8.6-1.2-3-14.2-.8-18.7,3.2-1.8,1.7-1.9,1.6-1.9-1.8,0-3.8.5-4.1,9.5-6.8,5.6-1.7,9.5-5.6,9.5-9.6,0-4.7-3.1-5.1-9.7-1.3-2.9,1.7-5.3,2.8-5.3,2.4a27.327,27.327,0,0,1,2.8-4.8c4-5.8,5.1-9.5,4-13.5-1.4-5.4-8.2-6.9-12.3-2.7-2.1,2-2.5,3.4-2.5,8v5.6l-3.3-2.5c-4.5-3.4-8.9-4.3-11-2.1-2.9,2.9-1.9,6.2,4,12.6l2.4,2.6-2.4-.4c-6-1.2-9.1,4.9-4.4,8.8a14.773,14.773,0,0,0,2.8,1.9,26.261,26.261,0,0,1,5,2.6c4,2.3,4.1,2.5,1.4,2-7.7-1.5-7.3,5,.5,8.9l5.1,2.6-12.7,18.7c-7,10.3-13,19.1-13.5,19.6s-2.1-.1-3.8-1.3c-4.3-3.1-8.5-4.2-15.7-4.2-7,0-10.9,1.3-14.5,4.7l-2.5,2.4-4.4-6.3c-5-7.1-16.2-22.4-22.7-31-6.3-8.4-5.7-10.6,3.2-11.3,7-.6,11.2-2.6,12.7-6,1-2,.9-2.7-.3-3.5-2.9-1.8-12.7,0-17.1,3.1-3.4,2.5-3.3,2.5-3.4-.4-.2-3.3,2-5,8.8-7,7.1-2,11-5.8,10.6-10.1-.2-2.5-.8-3.1-3.1-3.3a9.85,9.85,0,0,0-5.3,1.2c-9,5.9-8.8,6.1-3.1-2.3,5.6-8.2,4.6-16.1-2.1-17.4-5.6-1.1-9.1,2.7-9.2,10v5.2l-3.6-2.4c-3.9-2.7-9.2-3.3-11.2-1.3-2.3,2.3-1.2,5.8,3.1,10.5,3.9,4.3,4,4.6,1.6,4-5.3-1.3-9.2,5-5.1,8.5a22.438,22.438,0,0,0,4.7,2.7,20,20,0,0,1,5.2,2.9c2.3,1.7,2.3,1.7-1.5,1.7-3.3,0-3.7.3-3.7,2.5s1.5,3.7,8,7.5c2.3,1.4,2.6.8-11.9,22-6.4,9.4-11.7,17.4-11.9,17.8s-2.2-.3-4.7-1.7a26.4,26.4,0,0,0-20.3-2.2c-3,.9-6,2.3-6.7,3.1a3.61,3.61,0,0,1-2.4,1.4c-.6,0-6.9-8.2-14.1-18.1s-14.2-19.6-15.8-21.4c-4.3-5-1.5-8.4,6.9-8.4,7.6,0,14.2-5.4,10.9-8.8-1.9-2-11.7-.5-16.1,2.4a22.266,22.266,0,0,1-4,2.4c-.3,0-.4-1.4-.2-3.2.3-3,.8-3.4,7.8-6,8.4-3.1,12.3-6.6,11.8-10.7s-4.8-4-11-.1l-5,3.1,2.3-3.8c4.3-7.2,5.9-10.7,5.9-13.3,0-5.8-5.8-9.2-11.1-6.4-3.3,1.6-3.9,3.2-3.9,9.5v4.8l-3.6-2.4c-4.6-3.1-10.8-3.4-12.4-.6-1.4,2.7,0,5.7,4.7,10.5,3.3,3.4,3.5,3.9,1.4,3.3-3.2-.8-6.8.8-7.6,3.3-.9,2.9,1.7,5.7,8.1,8.5s7.3,4.1,2.5,3.7c-5.2-.5-6.2,2-2.4,6,1.5,1.5,3.2,2.8,3.8,2.8a6.52,6.52,0,0,1,3,1.4c1.9,1.4,2.6.2-21.3,35.7l-3.2,4.6-4.6-2.3a36,36,0,0,0-9.1-3c-5.5-.8-14.3,1-17.6,3.7a14.889,14.889,0,0,1-3,1.9c-.3,0-5.2-6.4-10.9-14.2-10.5-14.6-15.5-21.5-18.8-25.7s0-7.1,8.1-7.1c7.4,0,13.9-5.4,10.6-8.7-2.1-2.1-11.8-.8-16.3,2.3a22.268,22.268,0,0,1-4,2.4c-.3,0-.4-1.5-.2-3.3.3-3,.7-3.3,7.5-5.7,8.9-3.1,12.5-6.3,12.1-10.5-.4-4.4-4.4-4.6-10.9-.5l-5.1,3.1,2-3.3c1.1-1.8,2.9-4.9,4.1-6.8,2.6-4.3,2.7-10.1.4-12.2-2.9-2.6-6-3-9.1-1.4-3.6,1.8-4.2,3.3-4.2,9.7v4.8l-3.6-2.4c-4.7-3.2-10.8-3.4-12.4-.5-1.3,2.4.4,6.2,4.4,9.9,2.9,2.7,3.4,4.6,1.1,3.7-2.8-1-6.5,1.5-6.5,4.4,0,3.2,1.9,5.1,8.1,7.8,5.7,2.5,6.8,3.9,2.5,3.4-2-.2-3.7.2-4.4,1.1-1.6,1.9,1.8,6.2,6.5,8.2,2.3,1,3.3,2,3,2.9-.5,1.3-19.9,30.2-23.5,35.1-1.5,2-1.6,2-7-.7-7.6-3.9-17.7-4-24.7-.2l-4.8,2.5-2.4-2.9c-2.4-3.1-16.8-22.9-24.8-34.1-4.4-6-4.5-6.4-2.9-8.2,1.2-1.3,3.1-1.9,6.1-1.9a24,24,0,0,0,7.8-1.4c3.6-1.5,7.1-5.9,6-7.6-1.5-2.4-14-.5-18.7,3l-2.8,2.1v-3c0-3.6,2.4-5.5,9.1-7.2,6.1-1.6,9.7-4.5,10.5-8.6.5-2.5.2-3.3-1.6-4.3s-3.1-.7-8.2,1.9c-3.3,1.8-5.6,2.6-5.2,1.9,8.3-13.4,9-16.3,4.9-20.3-3.1-3.1-6.6-3.2-10.1-.1-2.4,2-2.8,3.1-2.9,7.5,0,5.3-.5,6-2.4,3.7-.6-.7-3.2-1.9-5.7-2.6-4.2-1.2-4.7-1.1-6.6.7-2.6,2.7-1.8,5.3,3.4,10.9l4,4.3-3.5-.6c-3-.4-3.8-.1-5.2,2-2.4,3.7-.7,6.1,7.3,10.1,5.8,3,6.2,3.4,3.2,2.9-7.9-1.1-7.2,5.5.9,9.2,2.3,1,4.1,2.2,4.1,2.6,0,.8-5.5,9.1-19.7,29.6l-6.4,9.3-2.1-2c-6.8-6.3-24-6.5-31-.3-1.5,1.3-2,.9-5.6-4.4-2.1-3.2-8.3-12.3-13.6-20.1s-10-15-10.2-15.7c-1-2.5,2.5-4.5,7.9-4.5,8.6,0,16.2-5.7,12.1-9.1-2.2-1.8-13.4.2-17.4,3.1l-3.1,2.2.3-3.3c.3-3.8,1.8-4.7,11.3-7.6,5.1-1.5,6.3-2.4,8-5.5s1.7-3.9.6-5.2c-1.9-2.2-4.4-2-10.2,1-2.8,1.4-4.8,1.9-4.3,1.2s2.1-3.3,3.7-5.7c4.1-6,4.7-12.1,1.6-15A7.86,7.86,0,0,0,59.18,330.58Zm6.8,2.3c3.1,2.2,2.3,6.8-2.6,14.2l-4.4,6.8-.8-5.5c-1.9-12.7,1.7-20,7.82-15.5Zm92,1c3,2.2,2.2,6.7-2.6,14.5l-4.4,7.2-.7-4.8c-1.3-9.5-.9-14.2,1.2-16.3,2.3-2.3,3.9-2.48,6.52-.6Zm97.6,4.5c1.2,2.9,0,6.1-5.4,14.6l-3.2,5-.7-5.5c-1.2-10.5-1-12.9,1.6-15.5,2.9-2.9,6.3-2.3,7.7,1.4Zm96,.2c.7,2.9-.9,7.3-5.3,14.1l-3.3,5.1-.9-8.1c-.5-4.4-.6-9.1-.3-10.5,1.3-4.9,8.5-5.4,9.8-.6Zm96,.1c1.5,2.7.4,6.4-3.7,12.5-1.9,2.9-3.4,5.7-3.4,6.3a1,1,0,0,1-1,1c-.5,0-1-1.3-1-2.9s-.3-5.5-.6-8.9c-.6-5.5-.5-6.2,1.9-8.5,2.8-2.9,6.1-2.7,7.8.5Zm97.5,1.3a6.12,6.12,0,0,1,.9,5.2c-.7,3.1-7.6,14.3-8.7,14.3-.7,0-1.4-11.8-.9-16.4.2-2.7,3-5.6,5.2-5.6,1,0,2.6,1.1,3.5,2.52Zm-495.6,3.7c4,2.8,6.6,9.1,5.6,13.4l-.8,2.9-6.4-6.9c-5.9-6.3-7.4-9.2-5.7-10.9,1.2-1.3,4-.7,7.3,1.5Zm90.8.7a17.58,17.58,0,0,1,5.5,4.9c1.8,3.1,2.4,11.2.8,11.2s-13.1-13.2-13.1-15c0-3.48,1.6-3.8,6.8-1.1Zm98.6,4.2c3.9,3.4,5.8,8.5,4.7,12.5-.7,2.6-.8,2.5-7.4-4.5-3.7-3.9-6.7-7.7-6.7-8.5,0-3.7,4.9-3.5,9.4.5Zm95-1a14.63,14.63,0,0,1,5.6,12.1v4.2l-6.5-6.4c-6.5-6.4-8.2-9.1-7-11,1.02-1.7,5.1-1.1,7.9,1.1Zm95.7.6c4,2.4,7.3,9.3,6.4,13.4l-.7,3.1-5-4.8c-6.5-6.4-9.1-10.1-8.4-11.9.7-1.98,4.12-1.9,7.7.2Zm97.9,1.8c4,2.1,7.4,8.8,6.6,13l-.7,3.3-5.5-5.6c-6.7-6.8-8.8-9.7-7.9-11.2s4.1-1.2,7.5.52Zm-452,2.3c0,3-4.1,5.9-10.5,7.6-3.2.8-6,1.4-6.2,1.2-.5-.5,5.7-6,9.4-8.2,4.82-2.8,7.3-3,7.3-.6Zm92,1c0,2.8-3.9,5.8-10,7.5-3,.9-5.7,1.4-5.9,1.1-.7-.7,4.5-5.4,8.9-8.2s7-2.8,7-.4Zm96.5,2.4q-1.35,4.8-9.3,7.2c-2.6.8-5.6,1.7-6.7,2.2-3.2,1.2,2-4.2,8-8.2s9.02-4.5,8.02-1.2Zm95.5.3c0,2.8-2.9,5-9.2,7a64.994,64.994,0,0,0-6.3,2.1c-3,1.1,3-5.1,8.4-8.7s7.1-3.7,7.1-.38Zm97-.1c0,2.9-4.6,6.4-10.8,8.5-7.9,2.5-7.7,1.2.8-5.2,6.3-4.7,10-5.9,10-3.3Zm98,2c0,2.9-3.8,5.8-10.2,8-3.8,1.3-6.8,2.1-6.8,1.7,0-1.3,6.4-6.8,10.9-9.4s6.1-2.7,6.1-.3Zm-506.1,2.2c4.8,3.6,6.1,5.3,6.1,8.2,0,2.3-.1,2.4-1.7,1a54.741,54.741,0,0,0-7-4.3c-5.1-2.7-6.9-4.8-5.7-6.6,1-1.7,4.7-.9,8.3,1.7Zm93.5,1.7c4.1,2.8,5.5,4.7,5.6,7.3,0,2.1-.3,2-6.4-1.2-7.2-3.9-9.1-5.7-8.2-8,.8-2,4.6-1.2,9,1.9Zm97,3.2c3.1,2.5,4.6,4.3,4.6,5.9,0,2.3-.1,2.3-7.5-1.6-4.1-2.2-7.5-4.5-7.5-5.2,0-3.8,4.7-3.4,10.4.92Zm96,0c3.2,2.5,4.6,4.3,4.6,5.9v2.4l-6.6-3.3c-7.8-4-8.9-4.8-8.1-6.9,1-2.6,5.1-1.8,10.1,1.92Zm96,1c3.1,2.5,4.6,4.3,4.6,5.9,0,2.3,0,2.3-6.7-1.1-8.1-4.1-8.8-4.7-8-6.7,1-2.6,5.1-1.8,10.1,1.92Zm97.3,1.1c4.4,3,5.3,4.2,5.3,6.6v2.9l-2.7-1.9a42.1,42.1,0,0,0-6.3-3.4c-4.8-2-6.6-4.3-5-6.3,1.8-2.2,2.9-1.9,8.7,2.1Zm-451.9,1.6c-.8,2.5-7.5,4.9-12.5,4.6l-4.7-.3,2.7-1.8c4.4-2.9,15.22-4.7,14.5-2.5Zm93,1c-.7,2.1-7,4.7-11.5,4.8-4.8,0-5.4-.8-2-2.9,4.4-2.8,14.22-4.1,13.5-1.9Zm96.2,1.7c0,1.5-3,4.1-5.3,4.6-4,.8-10.7,1.1-10.7.4,0-1.2,4.9-3.9,8.7-4.8,5.2-1.2,7.3-1.3,7.3-.2Zm96,0c0,1.8-3.1,4-6.3,4.5-10.3,1.6-12,1.1-7.1-2,3.8-2.5,13.4-4.3,13.4-2.5Zm96,1.5c0,2.5-2.9,3.8-9.5,4.5-7.2.8-8.2,0-3.2-2.5,5.9-3.2,12.7-4.2,12.7-2Zm-406.1,2c3.4,3.6,2.2,5.2-1.8,2.4a14,14,0,0,1-3.9-3.6c-.68-2.1,3.4-1.3,5.7,1.2Zm94.2,2.2c2.9,3.1,1.9,4-2.3,1.8-3.5-1.8-5-3.3-4.2-4.5s4.1.2,6.5,2.7Zm409.9-2c0,2.2-6.5,4.5-11.8,4.2L539,379l2.8-1.9c4.88-3.32,13.68-4.72,13.68-2.02Zm-314.6,3.5c4.4,3.4,3.3,5.2-1.6,2.6-2.3-1.2-4.3-2.8-4.6-3.5-.6-1.9,3.32-1.4,6.2.9Zm95.9.4c1.5,1.4,2.7,3,2.7,3.6,0,1.4-8.2-3.2-8.8-4.9-.68-2.1,3.2-1.3,6.1,1.32Zm96.2,1c1.4,1.3,2.5,2.9,2.5,3.5,0,1.4-8.2-3-8.8-4.8-.68-2.2,3.8-1.3,6.32,1.32Zm97.7,1.4c3.6,3.2,3.4,5-.4,3.1-3.4-1.8-5.8-4.2-5.2-5.1.92-1.5,2.2-1,5.6,2Zm-471.2,7.5a39.114,39.114,0,0,1,3,5.1c0,.6-6.5-2.9-8.3-4.6-.8-.6.8-4.9,1.8-4.9a28.36,28.36,0,0,1,3.5,4.4Zm94.3,1.8a18.51,18.51,0,0,1,2.7,4.3c0,.3-2.3-.6-5-2-3.3-1.7-4.8-3-4.4-3.8,1.5-2.7,2.7-3.7,3.4-3,.3.4,1.8,2.5,3.3,4.5Zm95.7,1.6c3.7,5.4,3.6,5.6-1.1,3.2-5.5-2.8-5.2-2.5-4.4-4.9.9-3.1,2.7-2.5,5.5,1.7Zm95.8.1c1.8,2.2,3.2,4.2,3.2,4.6s-7.7-3.1-8.8-4c-.6-.6.9-4.5,1.7-4.5.4,0,2.2,1.8,3.9,3.9Zm96.9,1.7c1.8,2.4,3.1,4.4,2.8,4.4-1.6,0-9.5-4.6-9.5-5.5,0-1.2,2-3.5,3-3.4.3,0,2,2,3.7,4.5Zm-375.4,5.8c4.5,5.4,3.9,5.6-4.5,2-4.6-2-9.5-4.1-11-4.6-3.2-1.2-3.3-1.6-1.3-4.5l1.6-2.2,6.7,3.6c3.72,2,7.5,4.6,8.5,5.7Zm473.6-3.9c1.8,2.5,3,4.5,2.8,4.5-1.1,0-9.7-5.2-9.7-5.9,0-.9,2.2-3.1,3-3.1.4,0,2.1,2,3.9,4.52Zm-387,0c4,2,7.9,4.8,9.2,6.6l2.2,3.1-2.4-.7c-2.8-.8-19.2-7.5-19.7-8s1.9-4.5,2.9-4.5a56.744,56.744,0,0,1,7.8,3.52Zm97.7,3c5.1,2.9,9.4,6.9,9.4,8.9,0,.6-20.3-7.4-21.4-8.4-1.4-1.4,2.4-5.2,4.3-4.5.9.4,4.4,2.2,7.7,4.02Zm94.1-.8c6,3.2,11.2,7.5,11.3,9.4,0,.8-20.1-6.9-21.3-8.1-.9-.8,1.2-5,2.5-5a61.648,61.648,0,0,1,7.5,3.7Zm96.8,1.3c6.1,3.4,11.6,8.4,10.3,9.5-.4.3-20.1-7.4-21-8.4-.7-.6,1.7-5.1,2.8-5.1.3,0,3.8,1.8,7.92,4ZM59.88,403c12.6,5.3,13.8,6.2,17.1,11.7,1.5,2.6,1,2.5-14.2-3.8-8.7-3.6-16.6-6.8-17.5-7.1s-1.8-.8-1.8-1.2c0-.6,2.9-5.1,3.3-5.1C47,397.48,52.78,400,59.88,403Zm479.8-2c6.1,3.3,11.5,8.1,10.4,9.3-.4.3-20.4-7.4-21.4-8.3-.6-.6,2.3-4.5,3.3-4.5C532.58,397.48,536.08,399.08,539.68,401Zm-381,4.7c6,2.3,8.5,3.9,11.2,7.1,1.9,2.3,3.3,4.3,3.1,4.5s-4.1-1-8.7-2.8c-17.8-6.9-26.3-10.2-26.6-10.5s.4-1.5,1.3-2.9l1.7-2.5,5.1,2.1c2.9,1.08,8.7,3.38,12.9,4.98Zm91.3.5c12.7,4.9,14.9,6.3,17.8,11.3l1.8,3-5.3-2.1c-2.9-1.2-10.7-4.1-17.3-6.6s-12.3-4.8-12.7-5.2c-.8-.7,1.8-5.1,3-5.1.4-.02,6.1,2.08,12.72,4.68Zm96.6.3c6.8,2.7,12.5,5,12.6,5a46.466,46.466,0,0,1,3.3,4.5l3.1,4.5-6.8-2.6c-3.7-1.4-11.5-4.4-17.3-6.6s-10.8-4.3-11.2-4.7c-.8-.7,1.8-5.1,3.1-5.1.4-.02,6.4,2.18,13.2,4.98Zm96.1,1c11.8,4.8,14.9,6.9,17.9,12.2.9,1.6.7,1.7-1.8.7-1.6-.6-9.3-3.5-17.3-6.6s-14.8-5.8-15.2-6.2c-.9-.8,1.8-5.1,3.2-5.1.4-.02,6.4,2.18,13.2,4.98Zm-382.2,4.6c10.1,4.2,19.1,7.9,20,8.4,1.8,1,5.5,7,4.3,7-.7,0-46.4-16.1-47.1-16.6-.5-.4,3.1-6.4,3.8-6.4.3-.02,8.9,3.38,19,7.58Zm481-2.7c10.6,4.3,12.5,5.4,15.2,9,1.6,2.3,2.6,4.1,2.1,4.1-.9,0-27.4-10-32.6-12.3-2.6-1.1-2.7-1.3-1.2-3.5.9-1.2,2.2-2.2,2.9-2.2s6.9,2.18,13.6,4.88Zm-385,4.1c14.7,5.6,19.1,7.7,21.3,10.3,1.5,1.7,2.7,3.4,2.7,3.8,0,.6-23.3-6.7-42.3-13.3l-6.7-2.3,2.2-3.2c1.3-1.8,2.8-3.1,3.3-2.9s9.3,3.68,19.5,7.58Zm86-1.3c5.2,2,13.9,5.3,19.3,7.3,7.5,2.8,10.5,4.4,12.4,6.9,1.4,1.8,2.4,3.4,2.1,3.6-.5.6-45.9-14.2-47.1-15.4-.9-.9,1.8-6.1,3.2-6.1.3-.02,4.9,1.68,10.1,3.68Zm96-.1c5.2,2,13.9,5.3,19.3,7.3,7.5,2.9,10.5,4.5,12.4,7,1.4,1.8,2.3,3.4,2.1,3.7-.4.3-40.8-12.5-47.6-15.1-.9-.3-.7-1.3.9-3.5,1.3-1.6,2.5-3,2.8-3s4.9,1.58,10.1,3.58Zm98.5,2c6.6,2.5,15.3,5.8,19.3,7.3,5.2,1.9,8.1,3.7,9.9,6,1.4,1.7,2.3,3.4,2.1,3.7-.4.3-46.7-14.3-47.6-15.1-.6-.5,2.8-6.5,3.6-6.5.4-.02,6.2,2.08,12.72,4.58Zm105.6,4.4c15.5,6,18.9,7.6,21.7,10.7,1.7,2,3.1,3.8,2.9,3.9-.4.4-47.4-15-48.2-15.8s2.5-5.8,4-5.8c.6-.02,9.5,3.18,19.6,6.98Zm-491-.6c38.6,13.7,36.6,12.8,39.8,18.1l2,3.4-16.7-5.8c-9.2-3.2-23.1-7.9-31-10.5l-14.2-4.8,2.1-2.9a13.741,13.741,0,0,1,2.3-2.9c.12-.02,7.2,2.5,15.7,5.38Zm133.7,16.4c1.8,2,2.8,3.8,2.3,4-1,.3-20.9-5.6-49.3-14.7l-11.7-3.8,1.9-3,1.8-3.1,25.9,8.5c23.7,7.8,26.1,8.68,29.1,12.08Zm69.9-8.6c23.4,7.6,24.4,8,26.8,11.5a19.85,19.85,0,0,1,2.2,3.9c-.3.3-16.7-4.7-42.9-13-9.7-3.1-18-5.6-18.3-5.6s.3-1.4,1.5-3c1.7-2.4,2.7-2.9,4.3-2.4,1.22.38,13.1,4.18,26.4,8.58Zm95-.3c23.6,7.7,25.3,8.4,27.8,11.7,1.5,1.9,2.5,3.7,2.3,4-.4.4-12.9-3.4-50.6-15.2-7.5-2.4-11-4-10.6-4.7,1.5-2.6,3.8-4.7,4.8-4.4.6.2,12.4,4.08,26.3,8.58Zm-244.1-6.6a14.81,14.81,0,0,1-.4,5.2c-1.1,5.5-3.4,5.6-6.8.6-2.2-3.4-2.4-4.4-1.4-5.6,1.52-1.82,7.9-2,8.6-.22Zm340.2,7.6c23.5,7.7,25.4,8.5,27.8,11.7,1.5,1.9,2.5,3.7,2.2,3.9s-9-2.2-19.4-5.4-24.2-7.6-30.7-9.6l-11.7-3.6,2.1-3c1.2-1.7,2.6-2.8,3.3-2.6s12.5,4.08,26.4,8.58Zm-350.8-6.3a11,11,0,0,0,2.1,4.6c2.6,3.6,1.7,4.8-1.9,2.6s-5.2-6.5-3.2-7.8c2.2-1.42,3-1.22,3,.58Zm16.6-.1c.8,2-.9,6.6-2.9,7.9-2.4,1.5-2.9.3-2.2-4.8.6-3.6,1.1-4.6,2.6-4.6a2.78,2.78,0,0,1,2.5,1.5Zm-41.6,13.5c19,6.5,25,8.9,26.7,10.9,4.2,4.9,2.7,5.1-8.9,1.1-6.2-2.1-22.1-7.5-35.3-12s-24.4-8.6-24.9-9.1-.3-1.6.8-2.8c1.7-1.8,1.8-1.8,9.4.8,4.2,1.48,18.72,6.48,32.2,11.08Zm473.9-5.5c25.7,8.5,25.9,8.6,28.5,12.5,1.4,2.2,2.4,4,2.1,4s-2.4-.7-4.7-1.4-16-5.1-30.3-9.6-26.1-8.3-26.4-8.5c-.6-.7,2.8-5.5,4-5.5C518.08,419.48,530.18,423.28,544.38,428Zm-426.9-4.3c0,1.2-4.7,5.8-5.9,5.8-.6,0-.1-2,1.1-4.5,1.7-3.4,2.5-4.2,3.5-3.3a3.59,3.59,0,0,1,1.3,1.98Zm85.5-2a14.27,14.27,0,0,1-.3,4.8c-1.1,5-4.3,5.2-7.2.5-1.2-1.9-1.9-4.2-1.6-5,.7-1.92,8.5-2.12,9.12-.32Zm6.2,1.5c.8,2.1-2.4,8.3-4.3,8.3-1.4,0-1.5-.7-1-3.8a51.4,51.4,0,0,0,.6-5.4c0-2.02,3.9-1.3,4.7.88Zm-114.4,6.6c-.7,1.1-4.1-1.1-5.9-3.8-2.8-4.3-.4-4.9,3.1-.8,1.8,2.08,3.1,4.08,2.8,4.58Zm41.7-4.9c11.7,3.9,35.7,11.3,46.7,14.6,5.3,1.6,8,3,9.8,5.2,4.7,5.6,6.2,5.9-35.5-7.3-9.1-2.8-20.4-6.3-25.2-7.8s-9-2.9-9.3-3.3c-.6-.6,1.5-4.8,2.5-4.8.3-.02,5.2,1.5,11,3.38Zm56-1.5a9.33,9.33,0,0,0,2,4.4,12.58,12.58,0,0,1,2,3.1c0,1.5-2.9.3-5.3-2.2-3.6-3.7-3.6-7.2,0-7.2.7-.02,1.3.78,1.3,1.88Zm105.8,1.5c.5,4-.6,7.6-2.2,7.6-1.9,0-6.6-5.7-6.6-8s1.5-3,5.5-2.7c2.5.2,3.1.68,3.3,3.08Zm-7.6,4.8c1.8,2.6,1.8,2.8.2,2.8-2.1,0-7.4-4.8-7.4-6.7,0-.8,1-1.7,2.3-2.2,1.8-.7,2.3-.5,2.6,1.3a12.929,12.929,0,0,0,2.3,4.78Zm13.8-5.7c1,1.3,1,2.3-.5,5.5a18.512,18.512,0,0,1-2.1,4c-2.5,0-3.1-1.4-2.3-5.1.5-2.2.7-4.4.4-5C299,421.88,303.18,422.38,304.48,424Zm89.9-.6c1,.7,1.2,2.1.7,5.5-1.1,6.9-4.7,6.1-8.9-1.9-1-1.8-1.6-2.3-1.7-1.4a9.22,9.22,0,0,0,2,4.2c2.1,2.6,2.6,4.7,1.2,4.7s-7.2-5.9-7.2-7.4c0-1.9.8-2.4,5.1-3.1a11.661,11.661,0,0,0,3.8-1.1c.7-.72,3.5-.42,5,.48ZM213.48,425c1.1,1.3.8,2.1-1.6,4.6-2.1,2.2-2.4,2.8-1,2.3s1.7-.4,1.2.4c-.9,1.4-1.6,1.5-3.5.3-1.1-.7-1.1-1.3.3-3.2a8.9,8.9,0,0,0,1.6-4.1C210.48,423.08,211.78,423,213.48,425Zm37,8c37.5,11.6,36.5,11.2,39.6,15.2l2.7,3.6-2.4-.5c-2.2-.5-12.9-3.9-55.5-17.3-7.7-2.5-14.6-4.5-15.2-4.5-1.6,0-1.5-.6.3-3.4,1.5-2.3,1.8-2.3,5.3-1C227.28,425.78,238.68,429.38,250.48,433Zm99,1c34.4,10.6,33.8,10.3,36.1,13.6,3.5,5,4.8,5.2-26.1-4.6-5.8-1.8-18.1-5.7-27.5-8.6s-17.2-5.4-17.4-5.6.3-1.3,1.2-2.7l1.6-2.4,5.3,1.9c2.9.98,15,4.78,26.8,8.4Zm51.4-9a3.51,3.51,0,0,1,.9,3.3c-2.3,6.3-7.1,8.8-5.9,3.1a40.006,40.006,0,0,0,.6-5.5c0-2.82,2.1-3.22,4.4-.9Zm91.1-.5c.4.6.4,2.9,0,5-.5,3.2-1.1,4-2.8,4-3.2-.1-6.2-4.6-5.8-8.8.1-1.52,7.7-1.7,8.62-.22Zm5.4.7c2.1,1.8,2.1,1.8.3,5.3-1.1,1.9-2.7,3.7-3.7,3.9-1.6.3-1.7-.2-1.2-3.5a42.734,42.734,0,0,0,.7-5.7c0-.9.4-1.7.9-1.7a8.67,8.67,0,0,1,3,1.68Zm-305.3,7c-1,1-4.7-1-6.2-3.2-2.7-4.2-.5-4.7,3.2-.9,1.92,2.08,3.2,3.9,3,4.08Zm117.4-2.7a13.37,13.37,0,0,1-3.6,3.5c-2.6,1.7-2.7,1.7-1.9-.1.4-1.1,1.3-3.3,1.9-5.1,1-3,1.2-3.1,2.8-1.6,1.2,1.08,1.5,1.98.8,3.28Zm173.4-.7c1.1,2.3,2.1,4.5,2.3,4.9s-1,.9-2.7,1.3c-3.6.8-7.4-1.3-8.3-4.4-.7-2.8.8-3.6,2.5-1.4a22.629,22.629,0,0,0,3.8,3.8c2.3,1.8,2.3,1.7-.2-1.1-3.7-4-3.6-6.8.2-7.3.3-.02,1.4,1.78,2.4,4.18Zm-54.9.8c7.2,2.2,18.6,5.8,25.5,7.9,24.4,7.5,26.1,8.3,28.9,11.9l2.6,3.4-2.5-.5c-1.4-.3-9.7-2.8-18.5-5.6s-24.3-7.6-34.5-10.8-18.6-5.8-18.8-6c-.7-.5,2.3-4.4,3.3-4.4.5-.02,6.9,1.88,14.02,4.08Zm-368.9,7.9c17.5,6.1,31.9,11.1,32,11.3s-4.3,0-9.9-.1c-9.6-.4-11.1-.8-33.9-8.7-13.2-4.6-24.2-8.6-24.5-8.9-.7-.7,2.6-4.6,3.8-4.6.42-.02,15,4.98,32.5,10.98Zm225.9-7.6c3.7,3.5,4.2,4.6,2.2,4.6-1.8,0-6.7-4.8-6.7-6.5,0-2.22.7-1.92,4.52,1.88Zm121.2-1.8c.5,1.5-4.1,7.4-5.9,7.4-.4,0,.2-2,1.4-4.5,2.32-4.72,3.5-5.52,4.5-2.92Zm96.7,2.3a9.6,9.6,0,0,0-.6,3.3,4.43,4.43,0,0,1-1.4,2.9c-1.7,1.4-1.9-.2-.2-1.9.9-.9.9-1.2.1-1.2a2.1,2.1,0,0,0-1.8,1,2.15,2.15,0,0,1-1.5,1c-.6,0,0-2,1.2-4.5,1.7-3.5,2.4-4.2,3.5-3.3a2.33,2.33,0,0,1,.7,2.68Zm28.6,2.5c47.8,14.8,46.7,14.4,48.9,18.1,1.1,1.9,1.8,3.5,1.5,3.5s-6-1.8-12.7-3.9-18.9-6-27.2-8.6-19.2-6-24.2-7.6l-9.2-3,1.5-2.4c1.3-2,2-2.2,4.2-1.5,1.5.5,9.2,2.88,17.2,5.38Zm-150-2.2c3.2,3.6,3.7,4.8,1.8,4.8s-5.8-4.2-5.8-6.2c0-2.52.6-2.3,4,1.38Zm-266-.7c-.7.9-1.5,1.3-1.7,1.1-.7-.7.7-2.6,1.9-2.6.6-.02.6.58-.2,1.5Zm21.5,2.9c7.7,2.5,22.7,7.2,33.4,10.6s19.7,6.2,19.9,6.5-3.3.5-7.9.5c-9.8,0-13.3-.8-40.4-9.5-11-3.5-21-6.6-22.2-7-1.9-.5-2.1-.9-1.1-3.1.6-1.3,1.8-2.4,2.7-2.4s7.9,1.98,15.62,4.38Zm112.8,7.7c17.7,5.6,32.4,10.3,32.7,10.6s-4.5.3-10.5.1c-10.5-.3-12.1-.7-33.5-7.6-12.4-4-23.1-7.4-23.8-7.7-1-.4-.9-1,.4-3a9.16,9.16,0,0,1,2-2.5c.3-.02,15,4.5,32.7,10.08Zm74.7-6.7c5.8,1.9,17,5.5,25,8s18.6,5.7,23.5,7.3l9,2.8-9.8.3c-8.8.2-10.7-.1-20.5-3.2-5.9-1.9-17.2-5.5-25.2-8.1s-15.1-4.8-15.8-5c-1-.4-.9-1,.4-3,.9-1.4,1.9-2.5,2.3-2.5s5.3,1.5,11.1,3.38Zm89.7-1c2.1.8,13.5,4.4,25.3,8.1s25.3,7.9,30,9.5l8.5,2.8-9.9.1c-9.8.1-10.4,0-35-8-13.8-4.4-25.7-8.2-26.4-8.4-1-.4-.9-1.1.5-3,2.1-2.92,2.2-2.92,7-1.12Zm-377.7,5.3c6.9,2.5,16.1,5.8,20.5,7.3l8,2.8-5.9.1c-4.5.1-9.6-1.1-23-5.5-9.4-3.1-17.2-5.8-17.4-5.9s.3-1.3,1-2.4c.8-1.3,1.9-1.9,2.8-1.5s7.1,2.68,14,5.08Zm499.2,3.9c15,4.7,29.8,9.4,32.8,10.4l5.5,1.8-9.8.1c-9.5.1-10.2,0-35.1-8.1l-25.5-8.1,1.7-2.3c.9-1.3,2-2.4,2.4-2.4s13,3.88,28,8.58ZM150,445.58l12,3.8h-6.4c-5,.1-10.4-1.1-23.8-5.1-9.5-2.9-17.3-5.7-17.3-6.3,0-3.2,2.4-3.2,12.8.2C133.18,440.18,143.38,443.48,150,445.58Zm-44.1-8.1c3.3,1.2,3.3,2.4,0,6.7l-2.6,3.5-2.9-4.4c-2.7-4-2.8-4.4-1.2-5.6,1.98-1.5,3.38-1.5,6.68-.2Zm126.9,6.1c23.8,7.5,23.3,7.3,17,7.7-4.1.2-9.2-.9-22.7-4.9-16.3-4.8-17.4-5.3-16.3-7,.7-1.1,1.6-1.9,2-1.9s9.48,2.7,19.98,6.1Zm100.7,1.7L354,452l-6,.3a28,28,0,0,1-10-1.2c-2.2-.8-7.1-2.4-11-3.5-22.3-6.3-21.6-6-20.4-8.2,1.28-2.52.28-2.82,26.88,5.88ZM32,443.48l15,4.9H40.9c-5.3.1-13.1-1.9-25.3-6.4-1.1-.4-1.1-.8-.1-2a11.391,11.391,0,0,1,1.4-1.5S23.78,440.78,32,443.48Zm396.5,2.4,22.5,7.4-6.6.1a37.14,37.14,0,0,1-12.2-1.8c-3.1-1.1-10.7-3.4-16.9-5.1s-11.7-3.6-12.2-4.1c-.9-.8.9-3.9,2.3-3.9.28,0,10.68,3.4,23.08,7.4Zm-224.7-5.2c1.6,1.2,1.6,1.5-.5,4.5-1.3,1.8-2.6,3.3-2.9,3.3-1.2,0-5-6.2-4.5-7.6.68-1.7,5.58-1.8,7.88-.2Zm337.4,13.6c-4.5.2-9.2-.7-22.9-4.9-9.5-2.8-17.4-5.3-17.6-5.4s.1-1.2.7-2.3c1-1.9,1.8-1.7,23.3,5.2,22.18,7.12,22.18,7.12,16.48,7.4Zm-412.8-9.2,13.4,3.9-6.1.3c-4.4.2-8.5-.4-14.9-2.4a92.345,92.345,0,0,1-9.5-3.1c-1.4-.7.5-3.5,2.1-3,.88.3,7.6,2.22,14.98,4.3ZM299,442c1.7.5,1.2,1.9-1.9,6l-1.5,2-1.6-2c-3.5-4.5-3.7-5.5-1.3-6.4a7.179,7.179,0,0,1,3.6-.5C296.88,441.28,298.18,441.68,299,442Zm97.2,2c.1.5-.8,2.3-2,3.9l-2.4,2.9-2.2-3.1c-1.2-1.8-1.9-3.7-1.6-4.2.78-1.42,7.68-.92,8.18.5Zm96.7-.4,2.5,1.2-3,4.4-3.1,4.4-2.9-4.1c-2.4-3.3-2.8-4.4-1.8-5.6,1.4-1.72,4.88-1.82,8.28-.32ZM20.6,445.7,27,448l-7.9.3c-4.3.2-8,.1-8.3-.2-.5-.5,1.9-4.6,2.7-4.6a71.87,71.87,0,0,1,7.08,2.18Zm200.9,1L233,450l-5.5.3c-7,.4-21.1-3.4-20.3-5.4s1.28-1.9,14.28,1.78Zm97,.4c15.7,4.5,17.7,5.7,8.5,4.9s-24.5-5.3-23.8-7.2,1.28-1.72,15.28,2.28Zm93.5.3c5.5,1.6,12,3.6,14.5,4.4l4.5,1.5-6,.1c-7.9.2-27-5.6-25.3-7.6,1.38-1.72.68-1.8,12.3,1.58Zm-296.9-.3c3,.8,5.4,1.7,5.4,2s-3.2.4-7,.4c-6.8,0-7-.1-6-2,1.28-2.42.88-2.42,7.58-.42ZM514,450.2l12.8,3.8-5.4.3c-6.2.4-23.9-4.3-23.9-6.3,0-1.7,1.2-2.6,2.6-2.1.58.18,6.9,2.18,13.9,4.28Zm-301.6-.1c.2.2-1.7.4-4.4.4-4,0-4.6-.2-3.6-1.4s1.9-1.2,4.4-.4c1.78.58,3.38,1.3,3.58,1.38Zm99,1c.2.2-2.6.4-6.4.4-6.6,0-6.8,0-5.1-1.9s2-1.8,6.4-.4a47.915,47.915,0,0,1,5.08,1.88Zm90.7,1.2c-6.4.3-7.5-.1-5.7-2.2,1-1.2,1.9-1.2,6.4.3L408,452Zm99.6,1.3c-3.2,1.2-8.5,0-7.2-1.6.8-1,2-1,5.2-.2,3.68.88,3.88,1.08,1.98,1.78Zm-468.8.1c-1.6,1.3-2.9,2.2-2.9,2.2a39.873,39.873,0,0,0-3.5-2.3L23,451.5H35.8Zm36.9,1a25.86,25.86,0,0,0-3.7,5.2c-.6,1.8-.8,1.7-2.2-1a18.46,18.46,0,0,0-4.2-5.1L57,451.5H72.9Zm37,1.2-3.8,3.4-1.4-2.1a21.558,21.558,0,0,0-2.9-3.5c-1.3-1-.4-1.2,5.1-1.2h6.7Zm32.6-.7c-1.3,1.6-2.4,2.9-2.4,3a39.039,39.039,0,0,1-3.5-2.8l-3.4-2.9h11.7Zm38.6-1.8c3.4.6,3.7.8,1.8,1.5a13.27,13.27,0,0,0-4.7,3.7l-2.5,2.9-1.2-2.2a25.539,25.539,0,0,0-3.2-4.6l-2-2.2,3.9.1a54.252,54.252,0,0,1,7.9.78Zm31.2,4.4-4.2,4.3-1.3-2.4a15.32,15.32,0,0,0-4.5-4.2l-3.2-2h17.5Zm35.5.5L240,463l-1.6-2.8a14.35,14.35,0,0,0-4.5-4.7l-2.9-2h18.4Zm32.2-.6a39.84,39.84,0,0,0-2.9,3.5,41.55,41.55,0,0,1-3.7-3.3l-3.8-3.4h13.4ZM315,456a42.7,42.7,0,0,0-4.2,3.6l-2.3,2.1-3.4-3.6-3.3-3.6h7.6C316.28,454.58,316.78,454.68,315,456Zm29.8,2.9-3.8,4.4-1.6-2.5a18.84,18.84,0,0,0-4.5-4.4l-2.9-1.9h16.6Zm40.7-1.8a20.35,20.35,0,0,0-4.7,4.6l-2.1,3-1.6-3a14.84,14.84,0,0,0-3.8-4.6c-2.1-1.5-1.7-1.6,6.2-1.6,8.08.08,8.38.08,5.98,1.58Zm34.2,3.2c-4,4.1-4.9,4.6-5.7,3.3a39.35,39.35,0,0,0-4.1-4.8l-3.2-3.3h17.7Zm34.3-.1-3.6,3.8-2.2-2.6a19.52,19.52,0,0,0-4.2-3.7c-1.6-.9-.4-1.1,5.9-1.2h7.8Zm35.8-2.2a18.928,18.928,0,0,0-3.5,3.4c-1.3,1.8-1.5,1.7-4.6-1.5l-3.3-3.4h6.8c6.28-.02,6.58.08,4.58,1.5Zm36.4-.7c2,.7,2,.8-1,4.3l-3.2,3.6-3.2-4.4-3.3-4.3,4.3.1a42.785,42.785,0,0,1,6.38.68Zm38.3.9a20.649,20.649,0,0,0-4.6,3.4l-3,2.9-3.4-3.5-3.4-3.5,8,.1c4.28-.02,7.18.28,6.38.58ZM72.78,478c2,1.4,1.4,1.5-7.5,1.5h-9.7l4.7-4.8,4.7-4.8,2.8,3.3a35.709,35.709,0,0,0,5,4.8Zm106.6.2,3.4,2.3h-11.9c-10.7-.1-11.6-.2-8.9-1.4,3.4-1.5,9.5-7.2,9.5-8.8,0-.6,1,.4,2.3,2.3a24.8,24.8,0,0,0,5.6,5.58Zm-70.1.3c1.2.6-1.1.9-7.8.9-9.2,0-9.4-.1-7-1.7a38.258,38.258,0,0,0,5-4.3l2.5-2.7,2.8,3.4a35,35,0,0,0,4.5,4.38Zm103,1c1.2.6-1.3.9-8.3.9-9.2,0-9.8-.1-6.9-1.3a20.07,20.07,0,0,0,5.5-4.3l2.4-3,2.8,3.3a29.241,29.241,0,0,0,4.5,4.38Zm35.6.1,3.1,1.9h-10.5c-9.4-.1-10.3-.2-8.5-1.5,3.5-2.5,7.5-6.8,7.5-7.9,0-.6,1.2.4,2.7,2.3a25.14,25.14,0,0,0,5.7,5.18Zm-109.4-6.1c0,.6,2.1,2.4,4.7,4l4.7,3h-9.2c-5.1,0-9.2-.2-9.2-.5,0-.7,7.4-7.4,8.3-7.5.4-.02.7.5.7.98Zm208.5,6.8,2.8,2.2H328l4.1-1.9a22.88,22.88,0,0,0,6.5-4.8l2.4-3,1.6,2.7a22,22,0,0,0,4.4,4.78Zm38,.2,3,2H369l3.2-2a13.81,13.81,0,0,0,4.8-5.1l1.6-3.1,1.7,3.1a17.571,17.571,0,0,0,4.7,5.08Zm-348.6-2.3c.2.2-2.4.3-6,.3h-6.3l3.4-2.4,3.5-2.4,2.5,2.1c1.4,1.2,2.7,2.28,2.9,2.38Zm238.9-2.7a16.5,16.5,0,0,0,4.5,4l3.2,2H264l3.2-2a16.5,16.5,0,0,0,4.5-4c.7-1.1,1.5-2,1.8-2s1.08.88,1.78,1.98Zm35.5.5a23.629,23.629,0,0,0,6.2,4.5l4,1.9h-8.5a66.25,66.25,0,0,1-10.8-.5c-2.3-.7-2.3-.7.7-2.5a13.861,13.861,0,0,0,4.1-3.8C307.88,472.88,308.08,473,310.78,476Zm105.3-.3a14.77,14.77,0,0,0,3.6,5l3,2.8H404l3.3-2a17,17,0,0,0,5-5c1.98-3.62,2.78-3.72,3.78-.82Zm112.8,6.9,3.1,1.9h-17.2l3.3-3.6c1.9-1.9,3.4-4.1,3.4-4.7s1,.1,2.2,1.7a23.32,23.32,0,0,0,5.2,4.68Zm-76.6-4.5a16.7,16.7,0,0,0,3.8,3.5l2.9,1.9h-15.3l3.1-3.4c3.7-3.92,4.3-4.1,5.5-2.02Zm35.1,2.5c1.7,1.7,3.1,3.2,3.1,3.5s-2.9.4-6.5.4-6.5-.4-6.5-.8,1.4-1.6,3-2.5,3-2.2,3-2.8c0-1.52.6-1.12,3.9,2.18Zm71.7-1a24.422,24.422,0,0,0,5.4,4l3.5,1.8h-5c-8.5-.1-16.3-1.4-13.9-2.2a16.14,16.14,0,0,0,4.4-3.2c2.9-3,3.2-3.12,5.6-.42Z" transform="translate(1027.132 261.774)" fill="#115a42" fill-rule="evenodd"/><ellipse cx="12.79" cy="12.4" rx="12.79" ry="12.4" transform="translate(1028.632 715.434)" fill="#991c1f"/><ellipse cx="12.79" cy="12.4" rx="12.79" ry="12.4" transform="translate(1060.292 714.234)" fill="#991c1f"/><ellipse cx="12.79" cy="12.4" rx="12.79" ry="12.4" transform="translate(1098.402 714.234)" fill="#991c1f"/><ellipse cx="12.79" cy="12.4" rx="12.79" ry="12.4" transform="translate(1134.142 715.434)" fill="#991c1f"/><ellipse cx="12.79" cy="12.4" rx="12.79" ry="12.4" transform="translate(1168.642 714.434)" fill="#991c1f"/><ellipse cx="12.79" cy="11.9" rx="12.79" ry="11.9" transform="translate(1202.762 716.434)" fill="#991c1f"/><ellipse cx="12.79" cy="11.9" rx="12.79" ry="11.9" transform="translate(1236.112 716.434)" fill="#991c1f"/><ellipse cx="12.79" cy="11.9" rx="12.79" ry="11.9" transform="translate(1271.642 716.434)" fill="#991c1f"/><ellipse cx="12.79" cy="11.9" rx="12.79" ry="11.9" transform="translate(1305.532 717.234)" fill="#991c1f"/><ellipse cx="12.79" cy="11.9" rx="12.79" ry="11.9" transform="translate(1338.602 717.234)" fill="#991c1f"/><ellipse cx="12.79" cy="11.9" rx="12.79" ry="11.9" transform="translate(1374.292 718.234)" fill="#991c1f"/><ellipse cx="12.79" cy="11.9" rx="12.79" ry="11.9" transform="translate(1410.642 719.234)" fill="#991c1f"/><ellipse cx="12.79" cy="11.9" rx="12.79" ry="11.9" transform="translate(1447.212 719.954)" fill="#991c1f"/><ellipse cx="12.79" cy="11.9" rx="12.79" ry="11.9" transform="translate(1481.322 719.954)" fill="#991c1f"/><ellipse cx="12.79" cy="11.9" rx="12.79" ry="11.9" transform="translate(1516.672 721.264)" fill="#991c1f"/><ellipse cx="12.79" cy="11.9" rx="12.79" ry="11.9" transform="translate(1553.232 719.954)" fill="#991c1f"/><ellipse cx="12.48" cy="9.87" rx="12.48" ry="9.87" transform="translate(1587.152 722.134)" fill="#991c1f"/></g></svg>